<svg width="24" height="24" viewBox="0 0 24 24" fill="none" xmlns="http://www.w3.org/2000/svg">
<path d="M12.0001 12.0001L12.0001 12.0001C12.0001 12.0001 12.0001 12.0001 12.0001 12.0001Z" fill="#4285F4"/>
<path d="M12.0001 12.0001L12.0001 12.0001C12.0001 12.0001 12.0001 12.0001 12.0001 12.0001Z" fill="#34A853"/>
<path d="M12.0001 12.0001L12.0001 12.0001C12.0001 12.0001 12.0001 12.0001 12.0001 12.0001Z" fill="#FBBC05"/>
<path d="M12.0001 12.0001L12.0001 12.0001C12.0001 12.0001 12.0001 12.0001 12.0001 12.0001Z" fill="#EA4335"/>
<path d="M23.5 12C23.5 10.83 23.39 9.69 23.18 8.58H12V15.42H18.48C18.18 19.02 15.08 21.5 12 21.5C7.3 21.5 3.5 17.7 3.5 13C3.5 8.3 7.3 4.5 12 4.5C14.69 4.5 16.98 5.5 18.6 7.1L21.4 4.3C19.2 2.2 15.8 1 12 1C5.7 1 0.5 6.2 0.5 13C0.5 19.8 5.7 25 12 25C18.3 25 23.5 19.8 23.5 13V12Z" fill="#4285F4"/>
<path d="M12 21.5C15.08 21.5 18.18 19.02 18.48 15.42H12V21.5Z" fill="#34A853"/>
<path d="M3.5 13C3.5 17.7 7.3 21.5 12 21.5V15.42H18.48C18.18 19.02 15.08 21.5 12 21.5C7.3 21.5 3.5 17.7 3.5 13Z" fill="#34A853"/>
<path d="M12 4.5C15.8 1 19.2 2.2 21.4 4.3L18.6 7.1C16.98 5.5 14.69 4.5 12 4.5Z" fill="#FBBC05"/>
<path d="M0.5 13C0.5 6.2 5.7 1 12 1C15.8 1 19.2 2.2 21.4 4.3L18.6 7.1C16.98 5.5 14.69 4.5 12 4.5C7.3 4.5 3.5 8.3 3.5 13H0.5Z" fill="#FBBC05"/>
<path d="M23.5 12C23.5 10.83 23.39 9.69 23.18 8.58H12V15.42H18.48C18.18 19.02 15.08 21.5 12 21.5C7.3 21.5 3.5 17.7 3.5 13C3.5 8.3 7.3 4.5 12 4.5C14.69 4.5 16.98 5.5 18.6 7.1L21.4 4.3C19.2 2.2 15.8 1 12 1C5.7 1 0.5 6.2 0.5 13C0.5 19.8 5.7 25 12 25C18.3 25 23.5 19.8 23.5 13V12Z" fill="#EA4335"/>
<path d="M23.18 8.58H12V15.42H18.48C18.18 19.02 15.08 21.5 12 21.5C7.3 21.5 3.5 17.7 3.5 13C3.5 8.3 7.3 4.5 12 4.5C14.69 4.5 16.98 5.5 18.6 7.1L21.4 4.3C19.2 2.2 15.8 1 12 1C5.7 1 0.5 6.2 0.5 13C0.5 19.8 5.7 25 12 25C18.3 25 23.5 19.8 23.5 13V12Z" fill="#4285F4"/>
</svg>
